<svg width="150" height="150" viewBox="0 0 150 150" fill="none" xmlns="http://www.w3.org/2000/svg">
<path d="M81.4008 37.6259C83.1097 35.917 84.0557 33.6436 84.0557 31.2176C84.0557 26.213 79.9819 22.1544 74.9925 22.1544C70.0032 22.1544 65.9294 26.2283 65.9294 31.2176C65.9294 33.6436 66.8754 35.917 68.5842 37.6259L99.5272 68.5841L93.1189 74.9924L62.1759 44.0342C58.8955 40.7537 56.8662 36.2069 56.8662 31.2023C56.8662 21.1932 64.9834 13.076 74.9925 13.076C85.0017 13.076 93.1189 21.1932 93.1189 31.2023C93.1189 36.2069 91.0896 40.7385 87.8091 44.0189L81.4008 37.6259Z" fill="#3DD2CC"/>
<path d="M81.4006 37.6259L82.6365 38.8618C84.6811 36.8325 85.8101 34.0861 85.8101 31.2023C85.8101 25.2365 80.9581 20.3845 74.9923 20.3845C69.0265 20.3845 64.1898 25.2365 64.1745 31.2023C64.1745 34.0861 65.3036 36.8172 67.3481 38.8618L97.0552 68.5841L93.1339 72.5054L63.4116 42.7983C60.4363 39.823 58.6206 35.7339 58.6206 31.2176C58.6206 30.7599 58.4375 30.3021 58.1019 29.9817C57.7662 29.6613 57.3237 29.4629 56.866 29.4629C56.4082 29.4629 55.9505 29.646 55.6301 29.9817C55.3097 30.3174 55.1113 30.7599 55.1113 31.2176C55.1113 31.6753 55.2944 32.1331 55.6301 32.4535C55.9658 32.7739 56.4082 32.9722 56.866 32.9722C57.3237 32.9722 57.7814 32.7892 58.1019 32.4535C58.4223 32.1178 58.6206 31.6753 58.6206 31.2176C58.6359 22.1697 65.9597 14.8612 74.9923 14.8459C84.0402 14.8612 91.3487 22.1849 91.364 31.2176C91.364 35.7492 89.5331 39.823 86.573 42.7983L87.8089 44.0342L89.0448 42.7983L82.6365 36.39L81.4006 37.6259L82.6365 38.8618L81.4006 37.6259L80.1647 38.8618L86.573 45.2701C86.8934 45.5905 87.3512 45.7888 87.8089 45.7888C88.2667 45.7888 88.7244 45.6058 89.0448 45.2701C92.6457 41.6692 94.8733 36.6952 94.8733 31.2023C94.8733 20.2167 85.978 11.3214 74.9923 11.3214C64.0067 11.3214 55.1113 20.2167 55.1113 31.2023C55.1113 31.6601 55.2944 32.1178 55.6301 32.4382C55.9658 32.7586 56.4082 32.957 56.866 32.957C57.3237 32.957 57.7814 32.7739 58.1019 32.4382C58.4223 32.1026 58.6206 31.6601 58.6206 31.2023C58.6206 30.7446 58.4375 30.2869 58.1019 29.9664C57.7662 29.646 57.3237 29.4477 56.866 29.4477C56.4082 29.4477 55.9505 29.6308 55.6301 29.9664C55.3097 30.3021 55.1113 30.7446 55.1113 31.2023C55.1113 36.6799 57.339 41.6692 60.9398 45.2701L91.898 76.213C92.5846 76.8996 93.6984 76.8996 94.385 76.213L100.793 69.8047C101.114 69.4843 101.312 69.0266 101.312 68.5688C101.312 68.1111 101.129 67.6534 100.793 67.3329L69.8199 36.39C68.4314 35.0015 67.6838 33.1859 67.6685 31.2176C67.6685 27.1895 70.949 23.9091 74.9771 23.9091C79.0051 23.9091 82.2856 27.1895 82.2856 31.2176C82.2856 33.1859 81.5379 35.0015 80.1495 36.39C79.8138 36.7257 79.6307 37.1682 79.6307 37.6259C79.6307 38.0989 79.8138 38.5414 80.1495 38.8618L81.4006 37.6259Z" fill="#3DD2CC"/>
<path d="M112.343 81.4007C114.052 83.1095 116.326 84.0555 118.752 84.0555C123.741 84.0555 127.815 79.9817 127.815 74.9924C127.815 69.9878 123.756 65.9292 118.767 65.9292C116.341 65.9292 114.068 66.8752 112.359 68.5841L81.4005 99.527L74.9922 93.1187L105.95 62.1758C109.231 58.8953 113.762 56.866 118.767 56.866C128.776 56.866 136.893 64.9832 136.893 75.0076C136.893 85.032 128.776 93.134 118.767 93.134C113.762 93.134 109.231 91.1047 105.95 87.8242L112.343 81.4007Z" fill="#3DD2CC"/>
<path d="M112.343 81.4006L111.107 82.6365C113.137 84.6811 115.883 85.8102 118.767 85.8102C124.733 85.8102 129.585 80.9582 129.585 74.9923C129.585 69.0265 124.748 64.1745 118.782 64.1745C118.309 64.1745 117.867 64.3576 117.546 64.6933C117.21 65.029 117.027 65.4714 117.027 65.9292H118.782V64.1745C115.898 64.1745 113.167 65.3036 111.123 67.3329L81.4003 97.0552L77.479 93.1339L107.186 63.4116C110.161 60.4516 114.235 58.6207 118.767 58.6207C119.575 58.6207 120.293 58.0561 120.476 57.2627C120.659 56.4693 120.277 55.6454 119.545 55.2945L118.767 56.866V58.6207C127.815 58.6359 135.123 65.9597 135.138 75.0076C135.123 84.0555 127.799 91.364 118.767 91.3793C114.235 91.3793 110.161 89.5483 107.186 86.5883L105.95 87.8242L107.186 89.0601L113.594 82.6518L112.343 81.4006L111.107 82.6365L112.343 81.4006L111.107 80.1648L104.699 86.5731C104.012 87.2597 104.012 88.3735 104.699 89.0601C108.285 92.6609 113.274 94.8886 118.767 94.8886C129.752 94.8886 138.648 85.9933 138.648 75.0076C138.648 64.0219 129.752 55.1114 118.767 55.1114C117.958 55.1114 117.241 55.6759 117.058 56.4693C116.875 57.2627 117.256 58.0866 117.989 58.4376L118.767 56.866V55.1114C113.274 55.1114 108.3 57.339 104.699 60.9399L73.7561 91.8828C73.4357 92.2032 73.2373 92.6609 73.2373 93.1187C73.2373 93.5764 73.4204 94.0342 73.7561 94.3546L80.1644 100.763C80.851 101.449 81.9648 101.449 82.6514 100.763L113.594 69.8199C114.998 68.4315 116.798 67.6838 118.767 67.6838C119.224 67.6838 119.682 67.5007 120.003 67.1651C120.323 66.8294 120.521 66.3869 120.521 65.9292H118.767V67.6838C122.795 67.6838 126.075 70.9643 126.06 74.9923C126.06 79.0204 122.78 82.3009 118.751 82.3009C116.783 82.3009 114.968 81.5532 113.579 80.1648C113.243 79.8291 112.801 79.646 112.343 79.646C111.87 79.646 111.428 79.8291 111.107 80.1648L112.343 81.4006Z" fill="#3DD2CC"/>
<path d="M37.6261 68.5841C35.9019 66.8752 33.6438 65.9292 31.2178 65.9292C26.2132 65.9292 22.1546 70.003 22.1546 74.9924C22.1546 79.9969 26.2132 84.0555 31.2178 84.0708C33.6438 84.0708 35.9172 83.1248 37.6261 81.4159L68.5843 50.4577L74.9926 56.866L44.0344 87.809C40.7539 91.0894 36.2071 93.1187 31.2025 93.1187C21.1781 93.1187 13.0762 85.0015 13.0762 74.9771C13.0762 64.968 21.1934 56.8508 31.2025 56.8508C36.2071 56.8508 40.7387 58.8801 44.0191 62.1605L37.6261 68.5841Z" fill="#3DD2CC"/>
<path d="M37.6258 68.5841L38.8617 67.3482C36.8324 65.3036 34.086 64.1746 31.2023 64.1746C25.2365 64.1746 20.3845 69.0266 20.3845 74.9924C20.3845 80.9582 25.2212 85.8102 31.2023 85.8255C31.6753 85.8255 32.1178 85.6424 32.4382 85.3067C32.7738 84.971 32.9569 84.5285 32.9569 84.0708H31.2023V85.8255C34.086 85.8255 36.8172 84.6964 38.8617 82.6518L68.584 52.9295L72.5053 56.8508L42.7983 86.5731C39.823 89.5331 35.7339 91.3641 31.2175 91.3793C30.4394 91.3793 29.768 91.8828 29.5392 92.6152C29.3103 93.3476 29.6002 94.1563 30.241 94.5835L31.2175 93.134V91.3793C22.1696 91.3488 14.8611 84.0403 14.8459 74.9924C14.8611 65.9445 22.1696 58.636 31.2175 58.6207C35.7491 58.6207 39.823 60.4516 42.7983 63.4117L44.0341 62.1758L42.7983 60.9399L36.3899 67.3482L37.6258 68.5841L38.8617 67.3482L37.6258 68.5841L38.8617 69.82L45.27 63.4117C45.6057 63.076 45.7888 62.6335 45.7888 62.1758C45.7888 61.7028 45.6057 61.2603 45.27 60.9399C41.6692 57.3543 36.6951 55.1114 31.2023 55.1267C20.2166 55.1267 11.3213 64.022 11.3213 75.0076C11.3213 85.9933 20.2166 94.9039 31.2023 94.9039C31.9804 94.9039 32.6518 94.4004 32.8806 93.668C33.1095 92.9356 32.8196 92.127 32.1788 91.6997L31.2023 93.1492V94.9039C36.6798 94.9039 41.6692 92.6762 45.27 89.0754L76.2282 58.1324C76.9148 57.4458 76.9148 56.332 76.2282 55.6454L69.8199 49.2371C69.1333 48.5505 68.0195 48.5505 67.3329 49.2371L36.3899 80.1648C34.9862 81.5533 33.1858 82.3009 31.2175 82.3162C30.7598 82.3162 30.3021 82.4993 29.9816 82.8349C29.6612 83.1706 29.4629 83.6131 29.4629 84.0708H31.2175V82.3162C27.1895 82.3162 23.909 79.0357 23.909 74.9924C23.909 70.9643 27.1895 67.6991 31.2175 67.6839C33.1858 67.6839 34.9862 68.4315 36.3899 69.82C37.0766 70.5066 38.1904 70.5066 38.877 69.82L37.6258 68.5841Z" fill="#3DD2CC"/>
<path d="M118.767 45.5294H117.013H118.767V43.7748C111.245 43.7748 104.12 46.4449 98.4742 51.2969L99.6186 52.6244L100.854 51.3885L98.6115 49.1456L97.3756 50.3814L98.7031 51.5258C103.555 45.8804 106.21 38.7397 106.21 31.2176C106.21 14.0067 92.2185 0 74.9924 0C57.7662 0 43.7748 14.0067 43.7748 31.2176C43.7748 38.7397 46.4602 45.8651 51.2969 51.5105L52.6244 50.3662L51.3885 49.1303L49.1456 51.3732L50.3814 52.6091L51.5258 51.2817C45.8804 46.4297 38.7244 43.7748 31.2023 43.7748C14.0067 43.7748 0 57.7815 0 74.9924C0 92.2185 14.0067 106.21 31.2176 106.225C31.6753 106.225 32.133 106.042 32.4535 105.706C32.7739 105.371 32.9722 104.928 32.9722 104.471H31.2176V106.225C38.7397 106.225 45.8651 103.555 51.5105 98.7031L50.3662 97.3756L49.1303 98.6115L51.3732 100.854L52.6091 99.6186L51.2817 98.4742C46.4297 104.12 43.7748 111.276 43.7748 118.782C43.7748 135.993 57.7815 150 74.9924 150C92.2185 150 106.21 135.993 106.21 118.782C106.21 118.325 106.027 117.867 105.691 117.547C105.356 117.226 104.913 117.028 104.455 117.028V118.782H106.21C106.21 111.26 103.54 104.135 98.6878 98.4895L97.3604 99.6338L98.5963 100.87L100.839 98.6268L99.6033 97.3909L98.459 98.7183C104.104 103.586 111.26 106.225 118.782 106.225C135.993 106.225 150 92.2185 150 75.0076C150 57.7815 135.993 43.7901 118.782 43.7748C118.325 43.7748 117.867 43.9579 117.547 44.2936C117.226 44.6292 117.028 45.0717 117.028 45.5294H118.767V47.2841C134.04 47.3146 146.445 59.7193 146.475 74.9924C146.445 90.2655 134.04 102.67 118.767 102.701C112.069 102.701 105.767 100.351 100.732 96.033C100.031 95.4379 98.993 95.4684 98.3521 96.1245L96.1092 98.3674C95.4684 99.0082 95.4226 100.061 96.0177 100.748C100.336 105.783 102.701 112.069 102.701 118.752C102.701 119.21 102.884 119.667 103.219 119.988C103.555 120.308 103.998 120.507 104.455 120.507V118.752H102.701C102.67 134.04 90.2655 146.445 74.9924 146.475C59.7193 146.445 47.2994 134.04 47.2841 118.767C47.2841 112.069 49.6338 105.767 53.9518 100.732C54.5468 100.031 54.5163 98.993 53.8602 98.3521L51.6173 96.1092C50.9765 95.4684 49.9237 95.4226 49.2371 96.0177C44.202 100.336 37.9158 102.701 31.2328 102.701C30.7751 102.701 30.3174 102.884 29.9969 103.219C29.6765 103.555 29.4782 103.998 29.4782 104.455H31.2328V102.701C15.9445 102.67 3.53982 90.2655 3.50931 74.9924C3.53982 59.7193 15.9445 47.3146 31.2176 47.2841C37.9158 47.2841 44.2173 49.6338 49.2524 53.9518C49.9542 54.5468 50.9918 54.5011 51.6326 53.8602L53.8755 51.6173C54.5163 50.9765 54.5621 49.9237 53.967 49.2371C49.6491 44.2173 47.2841 37.9158 47.2841 31.2328C47.3146 15.9445 59.7193 3.53982 74.9924 3.50931C90.2655 3.53982 102.67 15.9445 102.701 31.2176C102.701 37.9158 100.351 44.2325 96.0482 49.2524C95.4532 49.9542 95.4837 50.9918 96.1398 51.6326L98.3827 53.8755C99.0235 54.5163 100.076 54.5621 100.763 53.967C105.798 49.6491 112.084 47.2841 118.767 47.2841C119.225 47.2841 119.683 47.101 120.003 46.7653C120.323 46.4297 120.522 45.9872 120.522 45.5294H118.767V47.2841V45.5294Z" fill="#3DD2CC"/>
<path d="M68.584 112.344C66.8751 114.052 65.9291 116.326 65.9291 118.752C65.9291 123.741 70.003 127.815 74.9923 127.815C79.9816 127.815 84.0554 123.756 84.0554 118.752C84.0554 116.326 83.1095 114.052 81.4006 112.344L50.4424 81.4007L56.8507 74.9924L87.8089 105.951C91.0893 109.231 93.1186 113.763 93.1186 118.767C93.1186 128.776 85.0014 136.894 74.9923 136.894C64.9679 136.894 56.8659 128.776 56.8659 118.767C56.8659 113.763 58.8952 109.231 62.1757 105.951L68.584 112.344Z" fill="#3DD2CC"/>
<path d="M68.5842 112.344L67.3483 111.108C65.319 113.137 64.1747 115.883 64.1899 118.752C64.1899 124.718 69.0419 129.57 75.0078 129.57C80.9736 129.57 85.8256 124.733 85.8256 118.752C85.8256 118.279 85.6425 117.836 85.3068 117.516C84.9711 117.18 84.5287 116.997 84.0709 116.997V118.752H85.8256C85.8256 115.868 84.6965 113.137 82.6672 111.092L52.9296 81.4007L56.8509 77.4642L86.558 107.186C89.5332 110.162 91.3642 114.236 91.3642 118.767C91.3642 119.591 91.9287 120.293 92.7221 120.476C93.5155 120.659 94.3395 120.262 94.6904 119.53L93.1036 118.767H91.3489C91.3337 127.815 84.0099 135.124 74.9772 135.139C65.9293 135.124 58.6208 127.8 58.6056 118.767C58.6056 114.236 60.4365 110.162 63.3965 107.186L62.1606 105.951L60.9248 107.186L67.3331 113.595L68.5842 112.344L67.3483 111.108L68.5842 112.344L69.8201 111.108L63.4118 104.699C62.7252 104.013 61.6114 104.013 60.9248 104.699C57.3239 108.285 55.0963 113.274 55.0963 118.767C55.0963 129.753 63.9916 138.648 74.9772 138.648C85.9629 138.648 94.8582 129.753 94.8582 118.767C94.8582 117.943 94.2937 117.241 93.5003 117.058C92.7069 116.875 91.883 117.272 91.532 118.004L93.1188 118.767H94.8735C94.8735 113.274 92.6458 108.3 89.045 104.699L58.1021 73.7412C57.7664 73.4056 57.3239 73.2225 56.8662 73.2225C56.3932 73.2225 55.9507 73.4056 55.6303 73.7412L49.222 80.1495C48.5354 80.8361 48.5354 81.95 49.222 82.6366L80.1649 113.595C81.5534 114.998 82.301 116.814 82.3163 118.767C82.3163 119.225 82.4994 119.683 82.835 120.003C83.1707 120.323 83.6132 120.522 84.0709 120.522V118.767H82.3163C82.3163 122.795 79.0358 126.06 75.0078 126.076C70.9797 126.076 67.6993 122.795 67.6993 118.767C67.6993 116.799 68.4469 114.983 69.8354 113.595C70.522 112.908 70.522 111.794 69.8354 111.108L68.5842 112.344Z" fill="#3DD2CC"/>
<path d="M74.9774 93.1187L76.2133 91.8828L59.3228 74.9924L74.9774 59.3531L90.632 74.9924L73.7415 91.8828L74.9774 93.1187L76.2133 91.8828L74.9774 93.1187L76.2133 94.3546L94.3396 76.2283C94.66 75.9079 94.8584 75.4501 94.8584 74.9924C94.8584 74.5346 94.6753 74.0769 94.3396 73.7565L76.2133 55.6149C75.5267 54.9283 74.4129 54.9283 73.7263 55.6149L55.5999 73.7412C54.9133 74.4278 54.9133 75.5417 55.5999 76.2283L73.7415 94.3699C74.0619 94.6903 74.5197 94.8886 74.9774 94.8886C75.4351 94.8886 75.8929 94.7055 76.2133 94.3699L74.9774 93.1187Z" fill="#3DD2CC"/>
</svg>
